RobotoSerifTextWide-Hairline 05h.ufo
<glyph name="dollar" format="2">
  <advance width="664"/>
  <unicode hex="0024"/>
  <outline>
    <contour>
      <point x="324" y="787" type="line"/>
      <point x="324" y="687" type="line"/>
      <point x="324" y="678" type="line"/>
      <point x="324" y="30" type="line"/>
      <point x="324" y="25" type="line"/>
      <point x="324" y="-120" type="line"/>
      <point x="360" y="-120" type="line"/>
      <point x="360" y="22" type="line"/>
      <point x="360" y="27" type="line"/>
      <point x="360" y="674" type="line"/>
      <point x="360" y="687" type="line"/>
      <point x="360" y="787" type="line"/>
    </contour>
    <contour>
      <point x="345" y="38" type="curve" smooth="yes"/>
      <point x="240" y="38.0"/>
      <point x="137" y="69"/>
      <point x="89" y="126" type="curve"/>
      <point x="81" y="110"/>
      <point x="95" y="100"/>
      <point x="110" y="80" type="curve"/>
      <point x="110" y="186" type="line"/>
      <point x="60" y="186" type="line"/>
      <point x="60" y="96" type="line"/>
      <point x="112" y="49"/>
      <point x="221" y="8.0"/>
      <point x="345" y="8" type="curve" smooth="yes"/>
      <point x="491" y="8.0"/>
      <point x="607.0" y="70.0"/>
      <point x="607" y="196" type="curve" smooth="yes"/>
      <point x="607" y="320"/>
      <point x="480" y="354"/>
      <point x="371" y="379" type="curve" smooth="yes"/>
      <point x="252" y="406"/>
      <point x="134" y="429"/>
      <point x="134" y="535" type="curve" smooth="yes"/>
      <point x="134" y="622"/>
      <point x="214.0" y="668.0"/>
      <point x="345" y="668" type="curve" smooth="yes"/>
      <point x="446" y="668"/>
      <point x="525" y="642"/>
      <point x="558" y="604" type="curve"/>
      <point x="565" y="626"/>
      <point x="551" y="649"/>
      <point x="529" y="653" type="curve"/>
      <point x="529" y="552" type="line"/>
      <point x="579" y="552" type="line"/>
      <point x="579" y="639" type="line"/>
      <point x="542" y="665"/>
      <point x="459" y="698"/>
      <point x="345" y="698" type="curve" smooth="yes"/>
      <point x="195.0" y="698.0"/>
      <point x="97" y="638"/>
      <point x="97" y="533" type="curve" smooth="yes"/>
      <point x="97" y="408"/>
      <point x="222" y="375"/>
      <point x="326" y="350" type="curve" smooth="yes"/>
      <point x="446" y="321"/>
      <point x="570" y="302"/>
      <point x="570" y="188" type="curve" smooth="yes"/>
      <point x="570.0" y="91.0"/>
      <point x="473" y="38"/>
    </contour>
  </outline>
</glyph>
<glyph name="one" format="2">
  <advance width="664"/>
  <unicode hex="0031"/>
  <outline>
    <contour>
      <point x="392" y="63" type="curve" smooth="yes"/>
      <point x="392" y="609" type="line"/>
      <point x="367" y="609" type="line"/>
      <point x="328" y="557"/>
      <point x="246" y="535"/>
      <point x="147" y="533" type="curve"/>
      <point x="147" y="498" type="line"/>
      <point x="239.00057557226884" y="495.9999874875594"/>
      <point x="334.2129872372381" y="525.2635187687705"/>
      <point x="358" y="575" type="curve"/>
      <point x="363.85856190849256" y="587.6935508017339"/>
      <point x="367.24807909741617" y="593.9661087589471"/>
      <point x="352" y="573" type="curve"/>
      <point x="352" y="63" type="line" smooth="yes"/>
      <point x="352" y="34.0"/>
      <point x="305.62295081967216" y="27"/>
      <point x="229" y="27" type="curve" smooth="yes"/>
      <point x="157" y="27" type="line"/>
      <point x="157" y="0" type="line"/>
      <point x="578" y="0" type="line"/>
      <point x="578" y="27" type="line"/>
      <point x="525" y="27" type="line" smooth="yes"/>
      <point x="443" y="27"/>
      <point x="392.0" y="34.0"/>
    </contour>
  </outline>
</glyph>
<glyph name="asciitilde" format="2">
  <advance width="664"/>
  <unicode hex="007E"/>
  <outline>
    <contour>
      <point x="443" y="264" type="curve" smooth="yes"/>
      <point x="517.1463414634146" y="264.0"/>
      <point x="549.0158819131824" y="325.0714686093207"/>
      <point x="563" y="388" type="curve"/>
      <point x="533" y="396" type="line"/>
      <point x="524.0113580306792" y="352.05552814998674"/>
      <point x="502.98936170212767" y="296.0"/>
      <point x="442" y="296" type="curve" smooth="yes"/>
      <point x="358" y="296"/>
      <point x="326" y="398"/>
      <point x="225" y="398" type="curve" smooth="yes"/>
      <point x="151.77165354330708" y="398.0"/>
      <point x="112.988495972418" y="334.9443972000203"/>
      <point x="101" y="277" type="curve"/>
      <point x="131" y="269" type="line"/>
      <point x="138.9915526685284" y="310.9556515097741"/>
      <point x="163.9591836734694" y="366.0"/>
      <point x="226" y="366" type="curve" smooth="yes"/>
      <point x="306" y="366"/>
      <point x="345" y="264"/>
    </contour>
  </outline>
</glyph>
<glyph name="acute" format="2">
  <advance width="588"/>
  <unicode hex="00B4"/>
  <anchor x="260" y="527.0" name="_top"/>
  <outline>
    <contour>
      <point x="304" y="706" type="curve" smooth="yes"/>
      <point x="238" y="590" type="line"/>
      <point x="238" y="576" type="line"/>
      <point x="253" y="576" type="line"/>
      <point x="350" y="682" type="line" smooth="yes"/>
      <point x="366" y="699"/>
      <point x="377" y="714"/>
      <point x="377" y="730" type="curve" smooth="yes"/>
      <point x="377" y="743"/>
      <point x="368" y="754"/>
      <point x="352" y="754" type="curve" smooth="yes"/>
      <point x="331" y="754"/>
      <point x="321" y="736"/>
    </contour>
  </outline>
</glyph>
<glyph name="cedilla" format="2">
  <advance width="697"/>
  <unicode hex="00B8"/>
  <anchor x="339" y="34.0" name="_bottom"/>
  <outline>
    <contour>
      <point x="348" y="4" type="line"/>
      <point x="305" y="4" type="line"/>
      <point x="266" y="-88" type="line"/>
      <point x="278" y="-88" type="line" smooth="yes"/>
      <point x="354.0" y="-88.0"/>
      <point x="383" y="-111"/>
      <point x="383" y="-148" type="curve" smooth="yes"/>
      <point x="383" y="-185"/>
      <point x="352" y="-207"/>
      <point x="311" y="-207" type="curve" smooth="yes"/>
      <point x="254" y="-207"/>
      <point x="229" y="-177"/>
      <point x="213" y="-161" type="curve"/>
      <point x="191" y="-186" type="line"/>
      <point x="219" y="-216"/>
      <point x="256" y="-236"/>
      <point x="311" y="-236" type="curve" smooth="yes"/>
      <point x="371" y="-236"/>
      <point x="426" y="-205"/>
      <point x="426" y="-148" type="curve" smooth="yes"/>
      <point x="426.0" y="-90.04545454545456"/>
      <point x="366.9976646254104" y="-59.000118246814665"/>
      <point x="288" y="-63" type="curve"/>
      <point x="281.40915556606717" y="-80.88943489210342"/>
      <point x="293.161425816132" y="-79.75786127580196"/>
      <point x="295" y="-77" type="curve"/>
    </contour>
  </outline>
</glyph>
<glyph name="multiply" format="2">
  <advance width="664"/>
  <unicode hex="00D7"/>
  <outline>
    <contour>
      <point x="168" y="523" type="line"/>
      <point x="144" y="498" type="line"/>
      <point x="497" y="158" type="line"/>
      <point x="520" y="183" type="line"/>
    </contour>
    <contour>
      <point x="496" y="523" type="line"/>
      <point x="145" y="183" type="line"/>
      <point x="167" y="158" type="line"/>
      <point x="520" y="498" type="line"/>
    </contour>
  </outline>
</glyph>
<glyph name="divide" format="2">
  <advance width="664"/>
  <unicode hex="00F7"/>
  <outline>
    <contour>
      <point x="377.0" y="175" type="curve" smooth="yes"/>
      <point x="377.0" y="201.0"/>
      <point x="359.0" y="218.0"/>
      <point x="332.0" y="218" type="curve" smooth="yes"/>
      <point x="305.0" y="218.0"/>
      <point x="287.0" y="201.0"/>
      <point x="287.0" y="175" type="curve" smooth="yes"/>
      <point x="287.0" y="149.0"/>
      <point x="305.0" y="132.0"/>
      <point x="332.0" y="132" type="curve" smooth="yes"/>
      <point x="359.0" y="132.0"/>
      <point x="377.0" y="149.0"/>
    </contour>
    <contour>
      <point x="377.0" y="509" type="curve" smooth="yes"/>
      <point x="377.0" y="535.0"/>
      <point x="359.0" y="552.0"/>
      <point x="332.0" y="552" type="curve" smooth="yes"/>
      <point x="305.0" y="552.0"/>
      <point x="287.0" y="535.0"/>
      <point x="287.0" y="509" type="curve" smooth="yes"/>
      <point x="287.0" y="482.0"/>
      <point x="305.0" y="466.0"/>
      <point x="332.0" y="466" type="curve" smooth="yes"/>
      <point x="359.0" y="466.0"/>
      <point x="377.0" y="482.0"/>
    </contour>
    <component base="minus"/>
  </outline>
</glyph>
<glyph name="oogonek" format="2">
  <advance width="642"/>
  <unicode hex="01EB"/>
  <outline>
    <contour>
      <point x="321" y="20" type="curve" smooth="yes"/>
      <point x="184" y="20"/>
      <point x="93" y="112"/>
      <point x="93" y="254" type="curve" smooth="yes"/>
      <point x="93" y="394"/>
      <point x="184" y="488"/>
      <point x="321" y="488" type="curve" smooth="yes"/>
      <point x="458" y="488"/>
      <point x="549" y="393"/>
      <point x="549" y="254" type="curve" smooth="yes"/>
      <point x="549" y="112"/>
      <point x="458" y="20"/>
    </contour>
    <contour>
      <point x="301" y="-140" type="curve" smooth="yes"/>
      <point x="301.0" y="-71.0"/>
      <point x="385" y="-37"/>
      <point x="491" y="42" type="curve" smooth="yes"/>
      <point x="553" y="88"/>
      <point x="592" y="163"/>
      <point x="592" y="253" type="curve" smooth="yes"/>
      <point x="592" y="409"/>
      <point x="478" y="518"/>
      <point x="321" y="518" type="curve" smooth="yes"/>
      <point x="164" y="518"/>
      <point x="50" y="410"/>
      <point x="50" y="253" type="curve" smooth="yes"/>
      <point x="50" y="97"/>
      <point x="164" y="-10"/>
      <point x="321" y="-10" type="curve" smooth="yes"/>
      <point x="359" y="-10"/>
      <point x="389" y="-2"/>
      <point x="423" y="11" type="curve"/>
      <point x="417" y="16" type="line"/>
      <point x="339.73912904189206" y="-30.155844987960585"/>
      <point x="260.0" y="-68.06410256410257"/>
      <point x="260" y="-142" type="curve" smooth="yes"/>
      <point x="260.0" y="-198.752688172043"/>
      <point x="304.0" y="-233.0"/>
      <point x="361" y="-233" type="curve" smooth="yes"/>
      <point x="410" y="-233.0"/>
      <point x="449" y="-208"/>
      <point x="477" y="-176" type="curve"/>
      <point x="457" y="-155" type="line"/>
      <point x="434" y="-178"/>
      <point x="408" y="-202.0"/>
      <point x="368" y="-202" type="curve" smooth="yes"/>
      <point x="332.0" y="-202.0"/>
      <point x="301" y="-180"/>
    </contour>
  </outline>
</glyph>
<glyph name="ring" format="2">
  <advance width="588"/>
  <unicode hex="02DA"/>
  <anchor x="294.0" y="526.0" name="_top"/>
  <outline>
    <contour>
      <point x="224.0" y="677.0" type="curve" smooth="yes"/>
      <point x="224.0" y="720.0"/>
      <point x="255.0" y="742.0"/>
      <point x="294.0" y="742.0" type="curve" smooth="yes"/>
      <point x="333.0" y="742.0"/>
      <point x="364.0" y="720.0"/>
      <point x="364.0" y="677.0" type="curve" smooth="yes"/>
      <point x="364.0" y="634.0"/>
      <point x="333.0" y="612.0"/>
      <point x="294.0" y="612.0" type="curve" smooth="yes"/>
      <point x="255.0" y="612.0"/>
      <point x="224.0" y="634.0"/>
    </contour>
    <contour>
      <point x="402.0" y="677.0" type="curve" smooth="yes"/>
      <point x="402.0" y="735.0"/>
      <point x="354.0" y="768.0"/>
      <point x="294.0" y="768.0" type="curve" smooth="yes"/>
      <point x="234.0" y="768.0"/>
      <point x="186.0" y="735.0"/>
      <point x="186.0" y="677.0" type="curve" smooth="yes"/>
      <point x="186.0" y="618.0"/>
      <point x="235.0" y="585.0"/>
      <point x="294.0" y="585.0" type="curve" smooth="yes"/>
      <point x="353.0" y="585.0"/>
      <point x="402.0" y="618.0"/>
    </contour>
  </outline>
</glyph>
<glyph name="ogonek" format="2">
  <advance width="697"/>
  <unicode hex="02DB"/>
  <anchor x="428.6648" y="28.08" name="_right"/>
  <outline>
    <contour>
      <point x="445" y="21" type="line"/>
      <point x="377" y="-22"/>
      <point x="308.0" y="-75"/>
      <point x="308" y="-141" type="curve" smooth="yes"/>
      <point x="308" y="-199"/>
      <point x="352.0" y="-233.0"/>
      <point x="409" y="-233" type="curve" smooth="yes"/>
      <point x="458" y="-233.0"/>
      <point x="497" y="-209"/>
      <point x="525" y="-176" type="curve"/>
      <point x="505" y="-155" type="line"/>
      <point x="482" y="-179"/>
      <point x="456" y="-202"/>
      <point x="416" y="-202" type="curve" smooth="yes"/>
      <point x="380.0" y="-202.0"/>
      <point x="349.0" y="-181"/>
      <point x="349" y="-140" type="curve" smooth="yes"/>
      <point x="349.0" y="-84"/>
      <point x="383" y="-52"/>
      <point x="465" y="2" type="curve"/>
    </contour>
  </outline>
</glyph>
<glyph name="franc" format="2">
  <advance width="664"/>
  <unicode hex="20A3"/>
  <outline>
    <contour>
      <point x="90" y="220" type="line"/>
      <point x="90" y="190" type="line"/>
      <point x="426" y="190" type="line"/>
      <point x="426" y="220" type="line"/>
    </contour>
    <contour>
      <point x="241" y="680" type="line"/>
      <point x="446" y="680" type="line" smooth="yes"/>
      <point x="546.0" y="680.0"/>
      <point x="588" y="673"/>
      <point x="592" y="637" type="curve" smooth="yes"/>
      <point x="602" y="556" type="line"/>
      <point x="629" y="556" type="line"/>
      <point x="629" y="710" type="line"/>
      <point x="104" y="710" type="line"/>
      <point x="104" y="680" type="line"/>
      <point x="117" y="680" type="line" smooth="yes"/>
      <point x="165" y="680"/>
      <point x="201" y="674"/>
      <point x="201" y="647" type="curve" smooth="yes"/>
      <point x="201" y="63" type="line" smooth="yes"/>
      <point x="201" y="36"/>
      <point x="165" y="30"/>
      <point x="117" y="30" type="curve" smooth="yes"/>
      <point x="104" y="30" type="line"/>
      <point x="104" y="0" type="line"/>
      <point x="357" y="0" type="line"/>
      <point x="357" y="30" type="line"/>
      <point x="337" y="30" type="line" smooth="yes"/>
      <point x="294" y="30"/>
      <point x="241" y="31"/>
      <point x="241" y="63" type="curve" smooth="yes"/>
    </contour>
    <contour>
      <point x="227" y="394" type="curve"/>
      <point x="227" y="365" type="line"/>
      <point x="330.99387111878644" y="364.0189257441624"/>
      <point x="434.0055882743889" y="362.96215871180397"/>
      <point x="538" y="361" type="curve"/>
      <point x="538" y="398" type="line"/>
      <point x="434.0055882743889" y="396.03784128819603"/>
      <point x="330.99387111878644" y="394.9810742558376"/>
    </contour>
  </outline>
</glyph>
<glyph name="naira" format="2">
  <advance width="664"/>
  <unicode hex="20A6"/>
  <outline>
    <contour>
      <point x="127" y="441" type="line"/>
      <point x="13" y="441" type="line"/>
      <point x="13" y="411" type="line"/>
      <point x="120" y="411" type="line"/>
    </contour>
    <contour>
      <point x="387" y="282" type="line"/>
      <point x="130" y="282" type="line"/>
      <point x="120" y="282" type="line"/>
      <point x="13" y="282" type="line"/>
      <point x="13" y="252" type="line"/>
      <point x="399" y="252" type="line"/>
    </contour>
    <contour>
      <point x="19" y="0" type="line"/>
      <point x="232" y="0" type="line"/>
      <point x="232" y="30" type="line"/>
      <point x="216" y="30" type="line" smooth="yes"/>
      <point x="179.54347826086956" y="30"/>
      <point x="137" y="38"/>
      <point x="137" y="45" type="curve" smooth="yes"/>
      <point x="137" y="695" type="line"/>
      <point x="122" y="700" type="line"/>
      <point x="520" y="0" type="line"/>
      <point x="563" y="0" type="line"/>
      <point x="563" y="642" type="line" smooth="yes"/>
      <point x="563" y="669.0"/>
      <point x="592.0963855421687" y="680"/>
      <point x="632" y="680" type="curve" smooth="yes"/>
      <point x="646" y="680" type="line"/>
      <point x="646" y="710" type="line"/>
      <point x="434" y="710" type="line"/>
      <point x="434" y="680" type="line"/>
      <point x="450" y="680" type="line" smooth="yes"/>
      <point x="486.38461538461536" y="680"/>
      <point x="528" y="672"/>
      <point x="528" y="665" type="curve" smooth="yes"/>
      <point x="528" y="49" type="line"/>
      <point x="535" y="47" type="line"/>
      <point x="161" y="710" type="line"/>
      <point x="19" y="710" type="line"/>
      <point x="19" y="680" type="line"/>
      <point x="32" y="680" type="line" smooth="yes"/>
      <point x="72.0" y="680"/>
      <point x="102" y="674.0"/>
      <point x="102" y="647" type="curve" smooth="yes"/>
      <point x="102" y="68" type="line" smooth="yes"/>
      <point x="102" y="41.0"/>
      <point x="72.0" y="30"/>
      <point x="32" y="30" type="curve" smooth="yes"/>
      <point x="19" y="30" type="line"/>
    </contour>
    <contour>
      <point x="305" y="411" type="line"/>
      <point x="532" y="411" type="line"/>
      <point x="539" y="411" type="line"/>
      <point x="651" y="411" type="line"/>
      <point x="651" y="441" type="line"/>
      <point x="295" y="441" type="line"/>
    </contour>
    <contour>
      <point x="551" y="252" type="line"/>
      <point x="651" y="252" type="line"/>
      <point x="651" y="282" type="line"/>
      <point x="551" y="282" type="line"/>
    </contour>
  </outline>
</glyph>
<glyph name="peseta" format="2">
  <advance width="664"/>
  <unicode hex="20A7"/>
  <outline>
    <contour>
      <point x="-2" y="0" type="line"/>
      <point x="226" y="0" type="line"/>
      <point x="226" y="30" type="line"/>
      <point x="196" y="30" type="line" smooth="yes"/>
      <point x="159" y="30"/>
      <point x="125" y="33"/>
      <point x="125" y="41" type="curve" smooth="yes"/>
      <point x="125" y="278" type="line"/>
      <point x="150" y="278" type="line" smooth="yes"/>
      <point x="315.98425196850394" y="278"/>
      <point x="398" y="364"/>
      <point x="398" y="497" type="curve" smooth="yes"/>
      <point x="398" y="631"/>
      <point x="319.93548387096774" y="710"/>
      <point x="156" y="710" type="curve" smooth="yes"/>
      <point x="-2" y="710" type="line"/>
      <point x="-2" y="680" type="line"/>
      <point x="7" y="680" type="line" smooth="yes"/>
      <point x="52" y="680"/>
      <point x="85" y="673"/>
      <point x="85" y="646" type="curve" smooth="yes"/>
      <point x="85" y="65" type="line" smooth="yes"/>
      <point x="85" y="37"/>
      <point x="54" y="30"/>
      <point x="7" y="30" type="curve" smooth="yes"/>
      <point x="-2" y="30" type="line"/>
    </contour>
    <contour>
      <point x="156" y="680" type="line" smooth="yes"/>
      <point x="293.8439024390244" y="680"/>
      <point x="355" y="616"/>
      <point x="355" y="496" type="curve" smooth="yes"/>
      <point x="355" y="380"/>
      <point x="294.7630331753554" y="309"/>
      <point x="150" y="309" type="curve" smooth="yes"/>
      <point x="125" y="309" type="line"/>
      <point x="125" y="680" type="line"/>
    </contour>
    <contour>
      <point x="377" y="478" type="line"/>
      <point x="662" y="478" type="line"/>
      <point x="662" y="508" type="line"/>
      <point x="525" y="508" type="line"/>
      <point x="486" y="554" type="line"/>
      <point x="486" y="512"/>
      <point x="446" y="503"/>
      <point x="394" y="503" type="curve" smooth="yes"/>
      <point x="377" y="503" type="line"/>
    </contour>
    <contour>
      <point x="522" y="113" type="curve" smooth="yes"/>
      <point x="522" y="648" type="line"/>
      <point x="486" y="648" type="line"/>
      <point x="486" y="500" type="line"/>
      <point x="482" y="492" type="line"/>
      <point x="482" y="113" type="line" smooth="yes"/>
      <point x="482" y="27.39200000000001"/>
      <point x="540.0" y="-10.0"/>
      <point x="607" y="-10" type="curve" smooth="yes"/>
      <point x="642" y="-10"/>
      <point x="667" y="-4"/>
      <point x="679" y="2" type="curve"/>
      <point x="679" y="34" type="line"/>
      <point x="670" y="31"/>
      <point x="642" y="23"/>
      <point x="615" y="23" type="curve" smooth="yes"/>
      <point x="562.0" y="23.0"/>
      <point x="522.0" y="51.0"/>
    </contour>
  </outline>
</glyph>
<glyph name="dong" format="2">
  <advance width="664"/>
  <unicode hex="20AB"/>
  <outline>
    <contour>
      <point x="97" y="250" type="curve" smooth="yes"/>
      <point x="97.0" y="391.59493670886076"/>
      <point x="171.0" y="488.0"/>
      <point x="304" y="488" type="curve" smooth="yes"/>
      <point x="405.0" y="488.0"/>
      <point x="473.79620885477107" y="424.53629248744454"/>
      <point x="512" y="324" type="curve"/>
      <point x="533" y="344" type="line"/>
      <point x="483.7621568020775" y="456.54364159525136"/>
      <point x="416.0" y="518.0"/>
      <point x="301" y="518" type="curve" smooth="yes"/>
      <point x="154" y="518"/>
      <point x="54" y="408"/>
      <point x="54" y="250" type="curve" smooth="yes"/>
      <point x="54.0" y="93"/>
      <point x="143.0" y="-10.0"/>
      <point x="285" y="-10" type="curve" smooth="yes"/>
      <point x="412.0" y="-10.0"/>
      <point x="482.2555889358837" y="62.4483281334353"/>
      <point x="543" y="169" type="curve"/>
      <point x="527" y="197" type="line"/>
      <point x="472.76123959410495" y="95.55342961119626"/>
      <point x="398.0" y="20.0"/>
      <point x="292" y="20" type="curve" smooth="yes"/>
      <point x="164" y="20"/>
      <point x="97.0" y="109.0"/>
    </contour>
    <contour>
      <point x="505" y="735" type="line"/>
      <point x="505" y="136" type="line"/>
      <point x="505" y="131" type="line"/>
      <point x="505" y="0" type="line"/>
      <point x="644" y="0" type="line"/>
      <point x="644" y="27" type="line"/>
      <point x="643" y="27" type="line"/>
      <point x="587.0" y="27.0"/>
      <point x="545" y="33.02777777777778"/>
      <point x="545" y="58" type="curve" smooth="yes"/>
      <point x="545" y="735" type="line"/>
    </contour>
    <contour>
      <point x="117" y="-126" type="line"/>
      <point x="117" y="-156" type="line"/>
      <point x="573" y="-156" type="line"/>
      <point x="573" y="-126" type="line"/>
    </contour>
    <contour>
      <point x="279" y="629" type="line"/>
      <point x="279" y="599" type="line"/>
      <point x="642" y="599" type="line"/>
      <point x="642" y="629" type="line"/>
    </contour>
  </outline>
</glyph>
<glyph name="Euro" format="2">
  <advance width="664"/>
  <unicode hex="20AC"/>
  <outline>
    <contour>
      <point x="33" y="437" type="line"/>
      <point x="33" y="407" type="line"/>
      <point x="446" y="407" type="line"/>
      <point x="446" y="437" type="line"/>
    </contour>
    <contour>
      <point x="33" y="285" type="line"/>
      <point x="33" y="255" type="line"/>
      <point x="403" y="255" type="line"/>
      <point x="403" y="285" type="line"/>
    </contour>
    <contour>
      <point x="396" y="-10" type="curve" smooth="yes"/>
      <point x="528" y="-10.0"/>
      <point x="592" y="51"/>
      <point x="630" y="132" type="curve"/>
      <point x="601" y="146" type="line"/>
      <point x="573" y="83"/>
      <point x="521.1682692307693" y="20.0"/>
      <point x="396" y="20" type="curve" smooth="yes"/>
      <point x="256.1921397379913" y="20.0"/>
      <point x="164" y="113"/>
      <point x="164" y="349" type="curve" smooth="yes"/>
      <point x="164" y="602"/>
      <point x="277" y="690"/>
      <point x="425" y="690" type="curve" smooth="yes"/>
      <point x="495.57988165680473" y="690.0"/>
      <point x="559.3073980930777" y="666.6383551846145"/>
      <point x="593" y="627" type="curve"/>
      <point x="596" y="634"/>
      <point x="583" y="665"/>
      <point x="569" y="668" type="curve"/>
      <point x="569" y="577" type="line"/>
      <point x="616" y="577" type="line"/>
      <point x="616" y="658" type="line"/>
      <point x="590.2207920409337" y="685.7622239559175"/>
      <point x="516.5208333333334" y="720.0"/>
      <point x="425" y="720" type="curve" smooth="yes"/>
      <point x="251" y="720"/>
      <point x="121" y="615"/>
      <point x="121" y="349" type="curve" smooth="yes"/>
      <point x="121" y="97"/>
      <point x="232" y="-10"/>
    </contour>
  </outline>
</glyph>
<glyph name="kip" format="2">
  <advance width="664"/>
  <unicode hex="20AD"/>
  <outline>
    <contour>
      <point x="45" y="386" type="line"/>
      <point x="45" y="356" type="line"/>
      <point x="577" y="356" type="line"/>
      <point x="577" y="386" type="line"/>
    </contour>
    <contour>
      <point x="64" y="0" type="line"/>
      <point x="298" y="0" type="line"/>
      <point x="298" y="30" type="line"/>
      <point x="287" y="30" type="line" smooth="yes"/>
      <point x="250" y="30"/>
      <point x="201" y="33"/>
      <point x="201" y="40" type="curve" smooth="yes"/>
      <point x="201" y="670" type="line" smooth="yes"/>
      <point x="201" y="677"/>
      <point x="250" y="680"/>
      <point x="287" y="680" type="curve" smooth="yes"/>
      <point x="298" y="680" type="line"/>
      <point x="298" y="710" type="line"/>
      <point x="64" y="710" type="line"/>
      <point x="64" y="680" type="line"/>
      <point x="77" y="680" type="line" smooth="yes"/>
      <point x="125" y="680"/>
      <point x="161" y="674"/>
      <point x="161" y="647" type="curve" smooth="yes"/>
      <point x="161" y="63" type="line" smooth="yes"/>
      <point x="161" y="36"/>
      <point x="125" y="30"/>
      <point x="77" y="30" type="curve" smooth="yes"/>
      <point x="64" y="30" type="line"/>
    </contour>
    <contour>
      <point x="658" y="31" type="line"/>
      <point x="645" y="31" type="line" smooth="yes"/>
      <point x="600" y="31"/>
      <point x="580" y="34"/>
      <point x="555" y="64" type="curve" smooth="yes"/>
      <point x="300" y="383" type="line"/>
      <point x="290" y="358" type="line"/>
      <point x="551" y="650" type="line" smooth="yes"/>
      <point x="571" y="672"/>
      <point x="591" y="679"/>
      <point x="626" y="679" type="curve" smooth="yes"/>
      <point x="645" y="679" type="line"/>
      <point x="645" y="710" type="line"/>
      <point x="434" y="710" type="line"/>
      <point x="434" y="679" type="line"/>
      <point x="445" y="679" type="line" smooth="yes"/>
      <point x="482" y="679"/>
      <point x="522" y="676"/>
      <point x="525" y="669" type="curve"/>
      <point x="257" y="367" type="line"/>
      <point x="270" y="361" type="line"/>
      <point x="529" y="41" type="line"/>
      <point x="529.0" y="34.0"/>
      <point x="482.1294117647059" y="31"/>
      <point x="446" y="31" type="curve" smooth="yes"/>
      <point x="436" y="31" type="line"/>
      <point x="436" y="0" type="line"/>
      <point x="658" y="0" type="line"/>
    </contour>
  </outline>
</glyph>
<glyph name="uni20B4" format="2">
  <advance width="664"/>
  <unicode hex="20B4"/>
  <outline>
    <contour>
      <point x="31" y="457" type="line"/>
      <point x="31" y="427" type="line"/>
      <point x="633" y="427" type="line"/>
      <point x="633" y="457" type="line"/>
    </contour>
    <contour>
      <point x="31" y="315" type="line"/>
      <point x="31" y="285" type="line"/>
      <point x="633" y="285" type="line"/>
      <point x="633" y="315" type="line"/>
    </contour>
    <contour>
      <point x="341" y="720" type="curve" smooth="yes"/>
      <point x="233" y="720"/>
      <point x="166" y="688"/>
      <point x="126" y="659" type="curve"/>
      <point x="126" y="575" type="line"/>
      <point x="175" y="575" type="line"/>
      <point x="175" y="674" type="line"/>
      <point x="161" y="671"/>
      <point x="143" y="647"/>
      <point x="150" y="626" type="curve"/>
      <point x="183.45938829083943" y="661.4275876020653"/>
      <point x="244" y="690"/>
      <point x="342" y="690" type="curve" smooth="yes"/>
      <point x="454" y="690"/>
      <point x="510.0" y="645"/>
      <point x="510" y="567" type="curve" smooth="yes"/>
      <point x="510.0" y="512.0"/>
      <point x="486.2491435794572" y="471.43685768459295"/>
      <point x="451" y="445" type="curve"/>
      <point x="505" y="445" type="line"/>
      <point x="532" y="474"/>
      <point x="551" y="517"/>
      <point x="551" y="565" type="curve" smooth="yes"/>
      <point x="551" y="663"/>
      <point x="477" y="720"/>
    </contour>
    <contour>
      <point x="332" y="-10" type="curve" smooth="yes"/>
      <point x="454" y="-10"/>
      <point x="543.1008641159292" y="35.00078555993559"/>
      <point x="586" y="74" type="curve"/>
      <point x="586" y="160" type="line"/>
      <point x="537" y="160" type="line"/>
      <point x="537" y="66" type="line"/>
      <point x="556" y="71"/>
      <point x="569" y="94"/>
      <point x="561" y="110" type="curve"/>
      <point x="522.4178025962943" y="60.80769831027527"/>
      <point x="440" y="20"/>
      <point x="333" y="20" type="curve" smooth="yes"/>
      <point x="214.0" y="20.0"/>
      <point x="128.0" y="66"/>
      <point x="128" y="162" type="curve" smooth="yes"/>
      <point x="128" y="216"/>
      <point x="155" y="264"/>
      <point x="193" y="291" type="curve"/>
      <point x="139" y="291" type="line"/>
      <point x="109" y="261"/>
      <point x="87" y="217"/>
      <point x="87" y="168" type="curve" smooth="yes"/>
      <point x="87.0" y="48"/>
      <point x="188.0" y="-10.0"/>
    </contour>
  </outline>
</glyph>
<glyph name="manat" format="2">
  <advance width="664"/>
  <unicode hex="20BC"/>
  <outline>
    <contour>
      <point x="314" y="720" type="line"/>
      <point x="314" y="144" type="line"/>
      <point x="350" y="144" type="line"/>
      <point x="350" y="720" type="line"/>
    </contour>
    <contour>
      <point x="332" y="559" type="curve" smooth="yes"/>
      <point x="499.6472868217055" y="559.0"/>
      <point x="591.0" y="384"/>
      <point x="591" y="0" type="curve"/>
      <point x="634" y="0" type="line"/>
      <point x="634" y="381"/>
      <point x="523" y="590"/>
      <point x="332" y="590" type="curve" smooth="yes"/>
      <point x="141" y="590"/>
      <point x="30" y="381"/>
      <point x="30" y="0" type="curve"/>
      <point x="73" y="0" type="line"/>
      <point x="73.0" y="384"/>
      <point x="164.35271317829455" y="559.0"/>
    </contour>
  </outline>
</glyph>
<glyph name="ruble" format="2">
  <advance width="666"/>
  <unicode hex="20BD"/>
  <outline>
    <contour>
      <point x="63" y="375" type="line"/>
      <point x="371" y="375" type="line" smooth="yes"/>
      <point x="536.8553191489362" y="375"/>
      <point x="595.0" y="436.0"/>
      <point x="595" y="530" type="curve" smooth="yes"/>
      <point x="595.0" y="625.0"/>
      <point x="535.9652173913043" y="680"/>
      <point x="376" y="680" type="curve" smooth="yes"/>
      <point x="200" y="680" type="line"/>
      <point x="200" y="40" type="line" smooth="yes"/>
      <point x="200" y="33.0"/>
      <point x="244" y="30"/>
      <point x="280" y="30" type="curve" smooth="yes"/>
      <point x="307" y="30" type="line"/>
      <point x="307" y="0" type="line"/>
      <point x="63" y="0" type="line"/>
      <point x="63" y="30" type="line"/>
      <point x="76" y="30" type="line" smooth="yes"/>
      <point x="124" y="30"/>
      <point x="160.0" y="37.0"/>
      <point x="160" y="66" type="curve" smooth="yes"/>
      <point x="160" y="649" type="line" smooth="yes"/>
      <point x="160" y="674"/>
      <point x="124.36363636363637" y="680"/>
      <point x="76" y="680" type="curve" smooth="yes"/>
      <point x="63" y="680" type="line"/>
      <point x="63" y="710" type="line"/>
      <point x="376" y="710" type="line" smooth="yes"/>
      <point x="562.1831501831501" y="710"/>
      <point x="638.0" y="641.0"/>
      <point x="638" y="531" type="curve" smooth="yes"/>
      <point x="638.0" y="422.0"/>
      <point x="557.3237410071943" y="345"/>
      <point x="371" y="345" type="curve" smooth="yes"/>
      <point x="63" y="345" type="line"/>
    </contour>
    <contour>
      <point x="444" y="187" type="line"/>
      <point x="63" y="187" type="line"/>
      <point x="63" y="218" type="line"/>
      <point x="444" y="218" type="line"/>
    </contour>
  </outline>
</glyph>
<glyph name="servicemark" format="2">
  <advance width="915"/>
  <unicode hex="2120"/>
  <outline>
    <contour>
      <point x="234" y="414" type="curve" smooth="yes"/>
      <point x="168" y="414"/>
      <point x="126" y="448"/>
      <point x="106" y="494" type="curve"/>
      <point x="75" y="494" type="line"/>
      <point x="75" y="391" type="line"/>
      <point x="102" y="391" type="line"/>
      <point x="109" y="471" type="line"/>
      <point x="100" y="479"/>
      <point x="91" y="481"/>
      <point x="83" y="485" type="curve"/>
      <point x="113" y="415"/>
      <point x="167" y="386"/>
      <point x="234" y="386" type="curve" smooth="yes"/>
      <point x="294" y="386"/>
      <point x="352" y="410"/>
      <point x="352" y="481" type="curve" smooth="yes"/>
      <point x="352" y="532"/>
      <point x="309" y="555"/>
      <point x="229" y="574" type="curve" smooth="yes"/>
      <point x="174" y="588"/>
      <point x="126" y="594"/>
      <point x="126" y="641" type="curve" smooth="yes"/>
      <point x="126" y="676"/>
      <point x="155" y="695"/>
      <point x="198" y="695" type="curve" smooth="yes"/>
      <point x="257" y="695"/>
      <point x="288" y="669"/>
      <point x="307" y="628" type="curve"/>
      <point x="333" y="628" type="line"/>
      <point x="333" y="716" type="line"/>
      <point x="309" y="716" type="line"/>
      <point x="301" y="646" type="line"/>
      <point x="309" y="639"/>
      <point x="317" y="639"/>
      <point x="325" y="640" type="curve"/>
      <point x="301" y="696"/>
      <point x="264" y="720"/>
      <point x="200" y="720" type="curve"/>
      <point x="137" y="720"/>
      <point x="92" y="692"/>
      <point x="92" y="637" type="curve" smooth="yes"/>
      <point x="92" y="576"/>
      <point x="150" y="559"/>
      <point x="208" y="545" type="curve" smooth="yes"/>
      <point x="286" y="526"/>
      <point x="316" y="518"/>
      <point x="316" y="474" type="curve" smooth="yes"/>
      <point x="316" y="431"/>
      <point x="279" y="414"/>
    </contour>
    <contour>
      <point x="407" y="395" type="line"/>
      <point x="529" y="395" type="line"/>
      <point x="529" y="420" type="line"/>
      <point x="524" y="420" type="line" smooth="yes"/>
      <point x="512" y="420"/>
      <point x="488" y="423"/>
      <point x="488" y="425" type="curve" smooth="yes"/>
      <point x="488" y="702" type="line"/>
      <point x="484" y="701" type="line"/>
      <point x="609" y="394" type="line"/>
      <point x="636" y="394" type="line"/>
      <point x="765" y="701" type="line"/>
      <point x="760" y="701" type="line"/>
      <point x="760" y="425" type="line" smooth="yes"/>
      <point x="760" y="423"/>
      <point x="739" y="420"/>
      <point x="725" y="420" type="curve" smooth="yes"/>
      <point x="719" y="420" type="line"/>
      <point x="719" y="395" type="line"/>
      <point x="850" y="395" type="line"/>
      <point x="850" y="420" type="line"/>
      <point x="841" y="420" type="line" smooth="yes"/>
      <point x="816" y="420"/>
      <point x="798" y="424"/>
      <point x="798" y="437" type="curve" smooth="yes"/>
      <point x="798" y="669" type="line" smooth="yes"/>
      <point x="798" y="683"/>
      <point x="816" y="685"/>
      <point x="841" y="685" type="curve" smooth="yes"/>
      <point x="850" y="685" type="line"/>
      <point x="850" y="710" type="line"/>
      <point x="736" y="710" type="line"/>
      <point x="623" y="435" type="line"/>
      <point x="631" y="434" type="line"/>
      <point x="523" y="710" type="line"/>
      <point x="407" y="710" type="line"/>
      <point x="407" y="685" type="line"/>
      <point x="414" y="685" type="line" smooth="yes"/>
      <point x="438" y="685"/>
      <point x="458" y="683"/>
      <point x="458" y="669" type="curve" smooth="yes"/>
      <point x="458" y="437" type="line" smooth="yes"/>
      <point x="458" y="424"/>
      <point x="438" y="420"/>
      <point x="414" y="420" type="curve"/>
      <point x="407" y="420" type="line"/>
    </contour>
  </outline>
</glyph>
<glyph name="notequal" format="2">
  <advance width="664"/>
  <unicode hex="2260"/>
  <outline>
    <contour>
      <point x="516.0" y="567" type="line"/>
      <point x="108.0" y="88" type="line"/>
      <point x="150.0" y="88" type="line"/>
      <point x="558.0" y="567" type="line"/>
    </contour>
    <component base="equal" xOffset="1"/>
  </outline>
</glyph>
<glyph name="acute.uc" format="2">
  <advance width="588"/>
  <anchor x="238" y="727.0" name="_top"/>
  <outline>
    <contour>
      <point x="311" y="867" type="curve" smooth="yes"/>
      <point x="211" y="780" type="line"/>
      <point x="211" y="766" type="line"/>
      <point x="226" y="766" type="line"/>
      <point x="351" y="838" type="line" smooth="yes"/>
      <point x="383" y="856"/>
      <point x="398" y="867"/>
      <point x="398" y="884" type="curve" smooth="yes"/>
      <point x="398" y="896"/>
      <point x="389" y="906"/>
      <point x="373" y="906" type="curve" smooth="yes"/>
      <point x="352" y="906"/>
      <point x="339" y="891"/>
    </contour>
  </outline>
</glyph>
<glyph name="circumflex_acute.uc" format="2">
  <advance width="588"/>
  <anchor x="294.0" y="749.0" name="_top"/>
  <outline>
    <contour>
      <point x="475" y="925" type="curve" smooth="yes"/>
      <point x="424" y="849" type="line"/>
      <point x="424" y="835" type="line"/>
      <point x="439" y="835" type="line"/>
      <point x="517" y="902" type="line" smooth="yes"/>
      <point x="541" y="922"/>
      <point x="551" y="937"/>
      <point x="551" y="952" type="curve" smooth="yes"/>
      <point x="551" y="966"/>
      <point x="542" y="975"/>
      <point x="527" y="975" type="curve" smooth="yes"/>
      <point x="507" y="975"/>
      <point x="498" y="960"/>
    </contour>
    <component base="circumflex.uc"/>
  </outline>
</glyph>
<glyph name="circumflex_tilde.uc" format="2">
  <advance width="588"/>
  <anchor x="294.0" y="694.0" name="_top"/>
  <outline>
    <contour>
      <point x="332" y="859" type="line"/>
      <point x="460" y="759" type="line"/>
      <point x="460" y="749" type="line"/>
      <point x="438" y="749" type="line"/>
      <point x="262" y="839" type="line"/>
      <point x="318" y="839" type="line"/>
      <point x="148" y="749" type="line"/>
      <point x="128" y="749" type="line"/>
      <point x="128" y="759" type="line"/>
      <point x="255" y="859" type="line"/>
    </contour>
    <contour>
      <point x="365" y="892" type="curve" smooth="yes"/>
      <point x="412.7" y="892.0"/>
      <point x="437.17890850738985" y="924.5864223297779"/>
      <point x="455" y="983" type="curve"/>
      <point x="427" y="993" type="line"/>
      <point x="413" y="949"/>
      <point x="399.77611940298505" y="925.0"/>
      <point x="370" y="925" type="curve" smooth="yes"/>
      <point x="322.87943262411346" y="925.0"/>
      <point x="290.46564885496184" y="996.0"/>
      <point x="219" y="996" type="curve" smooth="yes"/>
      <point x="172.41666666666669" y="996.0"/>
      <point x="145" y="964"/>
      <point x="133" y="902" type="curve"/>
      <point x="161" y="892" type="line"/>
      <point x="171" y="938"/>
      <point x="182.9375" y="963.0"/>
      <point x="215" y="963" type="curve" smooth="yes"/>
      <point x="261.1538461538462" y="963.0"/>
      <point x="296.42857142857144" y="892.0"/>
    </contour>
  </outline>
</glyph>
<glyph name="five.oldtab" format="2">
  <advance width="664"/>
  <outline>
    <contour>
      <point x="339" y="-149" type="curve" smooth="yes"/>
      <point x="203" y="-149"/>
      <point x="120" y="-88"/>
      <point x="78" y="-4" type="curve"/>
      <point x="108" y="14" type="line"/>
      <point x="143" y="-60"/>
      <point x="216" y="-119"/>
      <point x="339" y="-119" type="curve" smooth="yes"/>
      <point x="480" y="-119"/>
      <point x="564" y="-31"/>
      <point x="564" y="91" type="curve" smooth="yes"/>
      <point x="564" y="206"/>
      <point x="471" y="275"/>
      <point x="360" y="275" type="curve" smooth="yes"/>
      <point x="266" y="275"/>
      <point x="205" y="239"/>
      <point x="150" y="179" type="curve"/>
      <point x="123" y="179" type="line"/>
      <point x="123" y="548" type="line"/>
      <point x="557" y="548" type="line"/>
      <point x="548" y="511" type="line"/>
      <point x="141" y="511" type="line"/>
      <point x="155" y="528" type="line"/>
      <point x="155" y="205" type="line"/>
      <point x="151" y="195"/>
      <point x="148" y="187"/>
      <point x="136" y="199" type="curve"/>
      <point x="184" y="262"/>
      <point x="256" y="305"/>
      <point x="364" y="305" type="curve" smooth="yes"/>
      <point x="520" y="305"/>
      <point x="607" y="205"/>
      <point x="607" y="91" type="curve" smooth="yes"/>
      <point x="607" y="-43"/>
      <point x="504" y="-149"/>
    </contour>
  </outline>
</glyph>
<glyph name="florin" format="2">
  <advance width="664"/>
  <outline>
    <contour>
      <point x="186" y="508" type="line"/>
      <point x="180" y="478" type="line"/>
      <point x="590" y="478" type="line"/>
      <point x="596" y="508" type="line"/>
    </contour>
    <contour>
      <point x="297" y="37" type="curve" smooth="yes"/>
      <point x="374" y="572" type="line" smooth="yes"/>
      <point x="390" y="684"/>
      <point x="447" y="724.0"/>
      <point x="536" y="724" type="curve" smooth="yes"/>
      <point x="583" y="724.0"/>
      <point x="625" y="711"/>
      <point x="641" y="703" type="curve"/>
      <point x="646" y="736" type="line"/>
      <point x="617" y="747"/>
      <point x="573" y="753.0"/>
      <point x="535" y="753" type="curve" smooth="yes"/>
      <point x="421" y="753.0"/>
      <point x="351" y="696"/>
      <point x="334" y="574" type="curve" smooth="yes"/>
      <point x="258" y="36" type="line" smooth="yes"/>
      <point x="232" y="-148"/>
      <point x="160" y="-206.0"/>
      <point x="70" y="-206" type="curve" smooth="yes"/>
      <point x="12" y="-206"/>
      <point x="-21" y="-193"/>
      <point x="-47" y="-184" type="curve"/>
      <point x="-53" y="-216" type="line"/>
      <point x="-29" y="-226"/>
      <point x="13" y="-236"/>
      <point x="70" y="-236" type="curve" smooth="yes"/>
      <point x="190" y="-236.0"/>
      <point x="268" y="-161"/>
    </contour>
  </outline>
</glyph>
<glyph name="lira.alt" format="2">
  <advance width="664"/>
  <outline>
    <contour>
      <point x="58" y="429" type="line"/>
      <point x="58" y="399" type="line"/>
      <point x="468" y="399" type="line"/>
      <point x="468" y="429" type="line"/>
    </contour>
    <contour>
      <point x="58" y="274" type="line"/>
      <point x="58" y="244" type="line"/>
      <point x="468" y="244" type="line"/>
      <point x="468" y="274" type="line"/>
    </contour>
    <contour>
      <point x="63" y="0" type="line"/>
      <point x="602" y="0" type="line"/>
      <point x="602" y="170" type="line"/>
      <point x="574" y="170" type="line"/>
      <point x="563" y="75" type="line" smooth="yes"/>
      <point x="559" y="37"/>
      <point x="518.0" y="30.0"/>
      <point x="418" y="30" type="curve" smooth="yes"/>
      <point x="95" y="30" type="line"/>
      <point x="98" y="26" type="line"/>
      <point x="217" y="76"/>
      <point x="266" y="144"/>
      <point x="266" y="223" type="curve" smooth="yes"/>
      <point x="266" y="325"/>
      <point x="166" y="415"/>
      <point x="166" y="532" type="curve" smooth="yes"/>
      <point x="166.0" y="637.0"/>
      <point x="246.38834951456312" y="690.0"/>
      <point x="373" y="690" type="curve" smooth="yes"/>
      <point x="459.49122807017545" y="690.0"/>
      <point x="506.40223691486153" y="669.4483223138537"/>
      <point x="543" y="642" type="curve"/>
      <point x="541" y="652"/>
      <point x="529" y="668"/>
      <point x="520" y="682" type="curve"/>
      <point x="520" y="585" type="line"/>
      <point x="568" y="585" type="line"/>
      <point x="568" y="672" type="line"/>
      <point x="533.4632805723717" y="695.363074906925"/>
      <point x="475.4744897959184" y="720.0"/>
      <point x="373" y="720" type="curve" smooth="yes"/>
      <point x="220.3895582329317" y="720.0"/>
      <point x="123.0" y="648.0"/>
      <point x="123" y="532" type="curve" smooth="yes"/>
      <point x="123" y="406"/>
      <point x="228" y="314"/>
      <point x="228" y="222" type="curve" smooth="yes"/>
      <point x="228" y="129"/>
      <point x="164" y="81"/>
      <point x="63" y="37" type="curve"/>
    </contour>
  </outline>
</glyph>
<glyph name="liraTurkish" format="2">
  <advance width="666"/>
  <outline>
    <contour>
      <point x="70" y="379" type="line"/>
      <point x="70" y="348" type="line"/>
      <point x="496" y="525" type="line"/>
      <point x="496" y="556" type="line"/>
    </contour>
    <contour>
      <point x="70" y="214" type="line"/>
      <point x="70" y="183" type="line"/>
      <point x="496" y="360" type="line"/>
      <point x="496" y="391" type="line"/>
    </contour>
    <contour>
      <point x="330" y="30" type="curve" smooth="yes"/>
      <point x="207" y="30" type="line"/>
      <point x="207" y="647" type="line" smooth="yes"/>
      <point x="207" y="674"/>
      <point x="243.7980769230769" y="680"/>
      <point x="296" y="680" type="curve" smooth="yes"/>
      <point x="308" y="680" type="line"/>
      <point x="308" y="710" type="line"/>
      <point x="70" y="710" type="line"/>
      <point x="70" y="680" type="line"/>
      <point x="83" y="680" type="line" smooth="yes"/>
      <point x="131.36363636363637" y="680"/>
      <point x="167" y="674"/>
      <point x="167" y="647" type="curve" smooth="yes"/>
      <point x="167" y="63" type="line" smooth="yes"/>
      <point x="167" y="36.41666666666667"/>
      <point x="131.36363636363637" y="30"/>
      <point x="83" y="30" type="curve" smooth="yes"/>
      <point x="70" y="30" type="line"/>
      <point x="70" y="0" type="line"/>
      <point x="330" y="0" type="line" smooth="yes"/>
      <point x="539.0" y="0.0"/>
      <point x="636.0014034848749" y="102.02343819741213"/>
      <point x="646" y="269" type="curve"/>
      <point x="603" y="282" type="line"/>
      <point x="596.0004964450669" y="120.01148915726145"/>
      <point x="521.0" y="30.0"/>
    </contour>
  </outline>
</glyph>
<glyph name="nine.oldtab" format="2">
  <advance width="664"/>
  <outline>
    <contour>
      <point x="120" y="-121" type="line"/>
      <point x="383" y="-104"/>
      <point x="557" y="46"/>
      <point x="557" y="275" type="curve" smooth="yes"/>
      <point x="557" y="440"/>
      <point x="462" y="528"/>
      <point x="328" y="528" type="curve" smooth="yes"/>
      <point x="190" y="528"/>
      <point x="105" y="440"/>
      <point x="105" y="329" type="curve" smooth="yes"/>
      <point x="105" y="224"/>
      <point x="183" y="146"/>
      <point x="312" y="146" type="curve" smooth="yes"/>
      <point x="428" y="146"/>
      <point x="521" y="222"/>
      <point x="573" y="310" type="curve"/>
      <point x="585" y="286" type="line"/>
      <point x="539" y="197"/>
      <point x="436" y="116"/>
      <point x="310" y="116" type="curve" smooth="yes"/>
      <point x="157" y="116"/>
      <point x="62" y="204"/>
      <point x="62" y="329" type="curve" smooth="yes"/>
      <point x="62" y="457"/>
      <point x="169" y="558"/>
      <point x="328" y="558" type="curve" smooth="yes"/>
      <point x="484" y="558"/>
      <point x="600" y="454"/>
      <point x="600" y="275" type="curve" smooth="yes"/>
      <point x="600" y="42"/>
      <point x="419" y="-135"/>
      <point x="125" y="-152" type="curve"/>
    </contour>
  </outline>
</glyph>
<glyph name="ringhalfright" format="2">
  <advance width="588"/>
  <anchor x="295" y="566.0" name="_top"/>
  <outline>
    <contour>
      <point x="294" y="742" type="line"/>
      <point x="333" y="742"/>
      <point x="364" y="720"/>
      <point x="364" y="677" type="curve" smooth="yes"/>
      <point x="364" y="634"/>
      <point x="333" y="612"/>
      <point x="294" y="612" type="curve"/>
      <point x="294" y="585" type="line"/>
      <point x="353" y="585"/>
      <point x="402" y="618"/>
      <point x="402" y="677" type="curve" smooth="yes"/>
      <point x="402" y="735"/>
      <point x="354" y="768"/>
      <point x="294" y="768" type="curve"/>
    </contour>
  </outline>
</glyph>
<glyph name="rupeeIndian" format="2">
  <advance width="666"/>
  <outline>
    <contour>
      <point x="90" y="508" type="line"/>
      <point x="90" y="478" type="line"/>
      <point x="638" y="478" type="line"/>
      <point x="638" y="508" type="line"/>
    </contour>
    <contour>
      <point x="125" y="275" type="line"/>
      <point x="182" y="275" type="line" smooth="yes"/>
      <point x="362.0" y="275.0"/>
      <point x="473.0" y="363.0"/>
      <point x="473" y="496" type="curve" smooth="yes"/>
      <point x="473" y="592"/>
      <point x="411" y="666"/>
      <point x="284" y="684" type="curve"/>
      <point x="250" y="699"/>
      <point x="197" y="711"/>
      <point x="243" y="680" type="curve"/>
      <point x="638" y="680" type="line"/>
      <point x="638" y="710" type="line"/>
      <point x="90" y="710" type="line"/>
      <point x="90" y="675" type="line"/>
      <point x="191" y="675" type="line" smooth="yes"/>
      <point x="347.0" y="675"/>
      <point x="430.0" y="607"/>
      <point x="430" y="496" type="curve" smooth="yes"/>
      <point x="430.0" y="380.0"/>
      <point x="351" y="305"/>
      <point x="182" y="305" type="curve" smooth="yes"/>
      <point x="90" y="305" type="line"/>
      <point x="90" y="277" type="line"/>
      <point x="440" y="0" type="line"/>
      <point x="546" y="0" type="line"/>
      <point x="546" y="31" type="line"/>
      <point x="529" y="31" type="line" smooth="yes"/>
      <point x="481" y="31"/>
      <point x="451" y="38"/>
      <point x="423" y="60" type="curve" smooth="yes"/>
      <point x="118" y="296" type="line"/>
    </contour>
  </outline>
</glyph>
<glyph name="seven.den" format="2">
  <advance width="370"/>
  <outline>
    <contour>
      <point x="165" y="313" type="line" smooth="yes"/>
      <point x="109" y="313"/>
      <point x="92.01587506515035" y="308.6785944829415"/>
      <point x="90" y="286" type="curve" smooth="yes"/>
      <point x="86" y="241" type="line"/>
      <point x="60" y="241" type="line"/>
      <point x="60" y="341" type="line"/>
      <point x="335" y="341" type="line"/>
      <point x="335" y="310" type="line"/>
      <point x="248.45987869582865" y="221.49305775709746"/>
      <point x="200.99933263775105" y="143.9862714051644"/>
      <point x="194" y="0" type="curve"/>
      <point x="147" y="0" type="line"/>
      <point x="159.997198666303" y="145.96853886771058"/>
      <point x="249.3347115237487" y="271.9739786794923"/>
      <point x="322" y="325" type="curve"/>
      <point x="319" y="313" type="line"/>
    </contour>
  </outline>
</glyph>
<glyph name="six.lintab" format="2">
  <advance width="664"/>
  <outline>
    <contour>
      <point x="523" y="709" type="line"/>
      <point x="286" y="673"/>
      <point x="113" y="503"/>
      <point x="113" y="287" type="curve" smooth="yes"/>
      <point x="113" y="111"/>
      <point x="210" y="20"/>
      <point x="348" y="20" type="curve" smooth="yes"/>
      <point x="483" y="20"/>
      <point x="566" y="115"/>
      <point x="566" y="234" type="curve" smooth="yes"/>
      <point x="566" y="346"/>
      <point x="491" y="429"/>
      <point x="361" y="429" type="curve" smooth="yes"/>
      <point x="244" y="429"/>
      <point x="149" y="357"/>
      <point x="98" y="266" type="curve"/>
      <point x="85" y="290" type="line"/>
      <point x="131" y="379"/>
      <point x="236" y="459"/>
      <point x="364" y="459" type="curve" smooth="yes"/>
      <point x="518" y="459"/>
      <point x="609" y="366"/>
      <point x="609" y="234" type="curve" smooth="yes"/>
      <point x="609" y="101"/>
      <point x="498" y="-10"/>
      <point x="348" y="-10" type="curve" smooth="yes"/>
      <point x="191" y="-10"/>
      <point x="70" y="102"/>
      <point x="70" y="287" type="curve" smooth="yes"/>
      <point x="70" y="504"/>
      <point x="249" y="703"/>
      <point x="518" y="740" type="curve"/>
    </contour>
  </outline>
</glyph>
<glyph name="six.oldtab" format="2">
  <advance width="664"/>
  <outline>
    <contour>
      <point x="524" y="709" type="line"/>
      <point x="287" y="673"/>
      <point x="114" y="503"/>
      <point x="114" y="287" type="curve" smooth="yes"/>
      <point x="114" y="111"/>
      <point x="211" y="20"/>
      <point x="349" y="20" type="curve" smooth="yes"/>
      <point x="484" y="20"/>
      <point x="567" y="115"/>
      <point x="567" y="234" type="curve" smooth="yes"/>
      <point x="567" y="346"/>
      <point x="492" y="429"/>
      <point x="362" y="429" type="curve" smooth="yes"/>
      <point x="245" y="429"/>
      <point x="150" y="357"/>
      <point x="99" y="266" type="curve"/>
      <point x="86" y="290" type="line"/>
      <point x="132" y="379"/>
      <point x="237" y="459"/>
      <point x="365" y="459" type="curve" smooth="yes"/>
      <point x="519" y="459"/>
      <point x="610" y="366"/>
      <point x="610" y="234" type="curve" smooth="yes"/>
      <point x="610" y="101"/>
      <point x="499" y="-10"/>
      <point x="349" y="-10" type="curve" smooth="yes"/>
      <point x="192" y="-10"/>
      <point x="71" y="102"/>
      <point x="71" y="287" type="curve" smooth="yes"/>
      <point x="71" y="504"/>
      <point x="250" y="703"/>
      <point x="519" y="740" type="curve"/>
    </contour>
  </outline>
</glyph>
<glyph name="two.lintab" format="2">
  <advance width="664"/>
  <outline>
    <contour>
      <point x="333" y="720" type="curve" smooth="yes"/>
      <point x="466" y="720"/>
      <point x="578" y="654"/>
      <point x="578" y="527" type="curve" smooth="yes"/>
      <point x="578.0" y="350.0"/>
      <point x="332.6663694631251" y="182.45382058264553"/>
      <point x="100" y="24" type="curve"/>
      <point x="96" y="26"/>
      <point x="94" y="29"/>
      <point x="96" y="32" type="curve"/>
      <point x="407" y="32" type="line" smooth="yes"/>
      <point x="508" y="32"/>
      <point x="549" y="39"/>
      <point x="554" y="80" type="curve" smooth="yes"/>
      <point x="564" y="169" type="line"/>
      <point x="592" y="169" type="line"/>
      <point x="592" y="0" type="line"/>
      <point x="66" y="0" type="line"/>
      <point x="66" y="38" type="line"/>
      <point x="320.73973562286386" y="213.50966037008337"/>
      <point x="534.0" y="362.0"/>
      <point x="534" y="527" type="curve" smooth="yes"/>
      <point x="534" y="641"/>
      <point x="438" y="690"/>
      <point x="333" y="690" type="curve" smooth="yes"/>
      <point x="226" y="690"/>
      <point x="152" y="656"/>
      <point x="105" y="614" type="curve"/>
      <point x="111" y="639"/>
      <point x="119" y="652"/>
      <point x="136" y="656" type="curve"/>
      <point x="136" y="558" type="line"/>
      <point x="87" y="558" type="line"/>
      <point x="87" y="648" type="line"/>
      <point x="128" y="678"/>
      <point x="207" y="720"/>
    </contour>
  </outline>
</glyph>
<glyph name="two.oldtab" format="2">
  <advance width="664"/>
  <outline>
    <contour>
      <point x="326" y="528" type="curve" smooth="yes"/>
      <point x="234" y="528"/>
      <point x="165" y="501"/>
      <point x="118" y="460" type="curve"/>
      <point x="137" y="491"/>
      <point x="125" y="496"/>
      <point x="151" y="500" type="curve"/>
      <point x="151" y="404" type="line"/>
      <point x="102" y="404" type="line"/>
      <point x="102" y="495" type="line"/>
      <point x="143" y="526"/>
      <point x="218" y="558"/>
      <point x="326" y="558" type="curve" smooth="yes"/>
      <point x="463" y="558.0"/>
      <point x="550.0" y="495.0"/>
      <point x="550" y="396" type="curve" smooth="yes"/>
      <point x="550.0" y="239.0"/>
      <point x="332.4288235510667" y="130.2107235679067"/>
      <point x="121" y="24" type="curve"/>
      <point x="118" y="26"/>
      <point x="115" y="29"/>
      <point x="118" y="32" type="curve"/>
      <point x="397" y="32" type="line" smooth="yes"/>
      <point x="499" y="32"/>
      <point x="537" y="40"/>
      <point x="543" y="80" type="curve" smooth="yes"/>
      <point x="554" y="157" type="line"/>
      <point x="581" y="157" type="line"/>
      <point x="581" y="0" type="line"/>
      <point x="85" y="0" type="line"/>
      <point x="85" y="38" type="line"/>
      <point x="305.3625622491114" y="153.1444018959321"/>
      <point x="507.0" y="251.0"/>
      <point x="507" y="396" type="curve" smooth="yes"/>
      <point x="507.0" y="480.0"/>
      <point x="436" y="528.0"/>
    </contour>
  </outline>
</glyph>
<glyph name="whitesquare" format="2">
  <advance width="641"/>
  <outline>
    <contour>
      <point x="100" y="104" type="line"/>
      <point x="541" y="104" type="line"/>
      <point x="541" y="522" type="line"/>
      <point x="100" y="522" type="line"/>
    </contour>
    <contour>
      <point x="165" y="159" type="line"/>
      <point x="165" y="467" type="line"/>
      <point x="476" y="467" type="line"/>
      <point x="476" y="159" type="line"/>
    </contour>
  </outline>
</glyph>
<glyph name="zero.slashold" format="2">
  <advance width="664"/>
  <outline>
    <contour>
      <point x="332.0" y="-11" type="curve" smooth="yes"/>
      <point x="495.0" y="-11"/>
      <point x="610.0" y="105"/>
      <point x="610.0" y="274" type="curve" smooth="yes"/>
      <point x="610.0" y="442"/>
      <point x="495.0" y="558"/>
      <point x="332.0" y="558" type="curve" smooth="yes"/>
      <point x="169.0" y="558"/>
      <point x="54.0" y="442"/>
      <point x="54.0" y="274" type="curve" smooth="yes"/>
      <point x="54.0" y="105"/>
      <point x="169.0" y="-11"/>
    </contour>
    <contour>
      <point x="332.0" y="19" type="curve" smooth="yes"/>
      <point x="194.0" y="19"/>
      <point x="97.0" y="118"/>
      <point x="97.0" y="274" type="curve" smooth="yes"/>
      <point x="97.0" y="428"/>
      <point x="194.0" y="528"/>
      <point x="332.0" y="528" type="curve" smooth="yes"/>
      <point x="470.0" y="528"/>
      <point x="567.0" y="428"/>
      <point x="567.0" y="274" type="curve" smooth="yes"/>
      <point x="567.0" y="117"/>
      <point x="470.0" y="19"/>
    </contour>
    <contour>
      <point x="130.5" y="99" type="line"/>
      <point x="550.5" y="420" type="line"/>
      <point x="536.5" y="448" type="line"/>
      <point x="113.5" y="124" type="line"/>
    </contour>
  </outline>
</glyph>
